<?xml version="1.0" encoding="UTF-8" standalone="no"?>
<!-- Created with Inkscape (http://www.inkscape.org/) -->

<svg
   xmlns:dc="http://purl.org/dc/elements/1.1/"
   xmlns:cc="http://creativecommons.org/ns#"
   xmlns:rdf="http://www.w3.org/1999/02/22-rdf-syntax-ns#"
   xmlns:svg="http://www.w3.org/2000/svg"
   xmlns="http://www.w3.org/2000/svg"
   xmlns:sodipodi="http://sodipodi.sourceforge.net/DTD/sodipodi-0.dtd"
   xmlns:inkscape="http://www.inkscape.org/namespaces/inkscape"
   width="580"
   height="163"
   id="svg3032"
   version="1.1"
   inkscape:version="0.48.3.1 r9886"
   sodipodi:docname="Nov dokument 2">
  <defs
     id="defs3034" />
  <sodipodi:namedview
     id="base"
     pagecolor="#ffffff"
     bordercolor="#666666"
     borderopacity="1.0"
     inkscape:pageopacity="0.0"
     inkscape:pageshadow="2"
     inkscape:zoom="0.6"
     inkscape:cx="400"
     inkscape:cy="300"
     inkscape:current-layer="layer1"
     inkscape:document-units="px"
     showgrid="false"
     inkscape:window-width="1611"
     inkscape:window-height="1026"
     inkscape:window-x="69"
     inkscape:window-y="24"
     inkscape:window-maximized="1" />
  <metadata
     id="metadata3037">
    <rdf:RDF>
      <cc:Work
         rdf:about="">
        <dc:format>image/svg+xml</dc:format>
        <dc:type
           rdf:resource="http://purl.org/dc/dcmitype/StillImage" />
        <dc:title></dc:title>
      </cc:Work>
    </rdf:RDF>
  </metadata>
  <g
     id="layer1"
     inkscape:label="Layer 1"
     inkscape:groupmode="layer"
     transform="translate(0,-437)">
    <g
       id="g3077"
       transform="matrix(1.0015045,0,0,1,-154.00034,284.85378)">
      <g
         inkscape:export-ydpi="99.602974"
         inkscape:export-xdpi="99.602974"
         inkscape:export-filename="/home/drazen/Namizje/test.png"
         id="g3705"
         transform="matrix(2.5199982,0,0,2.5199982,-404.43788,-378.95067)">
        <path
           style="fill:#f37936;fill-opacity:1;stroke:none"
           d="m 262.34139,210.50621 c -1.76942,-0.0459 -3.51833,0.86668 -4.46535,2.50728 -1.37793,2.38633 -0.54809,5.42799 1.83867,6.80548 2.38633,1.37793 5.42756,0.54766 6.80548,-1.83867 1.37793,-2.38676 0.57154,-5.42756 -1.81479,-6.80548 -0.74573,-0.4306 -1.55973,-0.64773 -2.36401,-0.66861 z m -11.1992,3.70123 c -0.42688,-0.008 -0.8601,0.006 -1.28946,0.0238 -2.86236,0.11876 -5.7451,0.83522 -8.45312,2.17298 l 10.38731,16.90625 20.01051,0.21491 c -0.25657,-2.989 -1.17083,-5.96976 -2.76995,-8.73968 -0.72028,-1.24708 -1.54189,-2.39904 -2.45953,-3.43856 -2.26828,1.6865 -5.42002,1.98081 -8.0233,0.47758 -2.60243,-1.50238 -3.93048,-4.38097 -3.60572,-7.18754 -1.25228,-0.25497 -2.51607,-0.40535 -3.79674,-0.42982 z m -12.75132,4.01165 c -4.01444,2.88755 -6.75063,6.97519 -7.99943,11.48574 3.32058,2.07605 4.40898,6.41992 2.43565,9.8381 -0.56006,0.97005 -1.30821,1.76775 -2.17298,2.36401 0.44795,1.36386 1.04463,2.71939 1.79092,4.01165 1.5322,2.65399 3.5676,4.82945 5.89808,6.51894 l 10.33956,-16.95401 -10.2918,-17.26443 z m -12.22599,12.70357 c -1.59771,0.11282 -3.12683,0.99194 -3.98777,2.4834 -1.37793,2.38676 -0.54809,5.45144 1.83867,6.82936 2.38633,1.37793 5.42755,0.54808 6.80548,-1.83867 1.37792,-2.38633 0.57154,-5.42799 -1.81479,-6.80549 -0.89488,-0.51672 -1.88297,-0.7363 -2.84159,-0.6686 z m 45.63255,6.11299 -19.89111,0.11939 -10.55447,17.12116 c 4.19089,2.07649 9.01478,2.73538 13.6826,1.76704 0.078,-1.06339 0.38617,-2.14274 0.95515,-3.12813 1.98655,-3.44077 6.3449,-4.6363 9.81423,-2.74608 3.51621,-3.57203 5.5968,-8.26354 5.9936,-13.13338 z m -9.8381,14.56612 c -1.59771,0.11292 -3.10296,0.99195 -3.9639,2.4834 -1.37792,2.38634 -0.57196,5.45143 1.8148,6.82936 2.38633,1.37792 5.45185,0.54766 6.82936,-1.83867 1.37793,-2.38634 0.54808,-5.42755 -1.83868,-6.80548 -0.89487,-0.51657 -1.88296,-0.73637 -2.84158,-0.66861 z"
           id="path3707"
           inkscape:connector-curvature="0" />
        <path
           transform="matrix(0.02821943,0,0,0.02821943,245.30588,212.31147)"
           d="m 274.84848,816.36365 c 0,44.68485 -36.22423,80.90909 -80.90909,80.90909 -44.68485,0 -80.90909,-36.22424 -80.90909,-80.90909 0,-44.68486 36.22424,-80.90909 80.90909,-80.90909 44.68486,0 80.90909,36.22423 80.90909,80.90909 z"
           sodipodi:ry="80.909088"
           sodipodi:rx="80.909088"
           sodipodi:cy="816.36365"
           sodipodi:cx="193.93939"
           id="path3709"
           style="fill:#00ad6a;fill-opacity:1;fill-rule:evenodd;stroke:none"
           sodipodi:type="arc" />
        <path
           sodipodi:nodetypes="cccccccc"
           d="m 242.80702,226.52832 c -8.98735,-0.56273 -12.33957,20.93973 12.67526,20.37714 0.62792,0.59041 0.96549,1.15318 1.18065,2.38898 2.93026,-1.39287 4.34143,-3.61471 4.3492,-5.00054 8.83905,-16.10657 -6.30001,-26.87811 -13.6337,-19.0284 -3.69666,-3.14704 -6.51326,-3.4613 -8.9427,-3.40339 0.57216,0.66416 0.60431,3.74016 0.80019,4.44334 1.37813,-0.1075 1.68933,-0.3099 3.5711,0.22287 z"
           style="font-size:12px;fill:#ffffff;fill-opacity:1;fill-rule:evenodd;stroke:none"
           id="path3711"
           inkscape:connector-curvature="0" />
        <path
           id="path3713"
           style="font-size:12px;fill:#67a600;fill-opacity:1;fill-rule:evenodd;stroke:none"
           d="m 246.62688,228.27772 c -7.84084,-3.14167 -16.05237,15.34718 9.78301,16.16331 0.48791,0.45876 1.07197,0.94182 1.23916,1.90207 1.68322,-1.08229 1.07277,-2.59065 1.07879,-3.66746 7.06604,-14.09825 -5.35697,-21.01682 -11.05541,-14.91742 -2.8724,-2.44531 -5.11751,-4.38569 -7.00524,-4.34069 0.44457,0.51606 0.41978,0.9731 0.57198,1.51948 1.07085,-0.0836 2.94689,0.47399 5.38771,3.34071 z"
           inkscape:connector-curvature="0" />
      </g>
      <path
         inkscape:export-ydpi="99.602974"
         inkscape:export-xdpi="99.602974"
         inkscape:export-filename="/home/drazen/Namizje/test.png"
         sodipodi:nodetypes="cssccccccccccccccsscccsccccccccsscccccccsccccccccccccsssscccsscccssccscccccsscccccccsccscccccsscccccccscccccsscccccscccccccssssss"
         id="path3715"
         d="m 637.25929,278.80877 c -4.36185,-0.78057 -9.654,-3.29508 -11.60758,-5.51528 -2.48345,-2.82236 -4.74643,-8.26243 -5.65477,-13.59378 -0.57658,-3.38412 -0.81561,-17.14326 -0.66484,-38.26733 l 0.23549,-32.98332 3.71674,-0.94477 c 2.04415,-0.51959 4.9246,-1.18495 6.40086,-1.47855 l 2.68432,-0.5337 0,10.71642 0,10.71642 12.80185,0 12.80192,0 0,5.78144 0,5.78152 -12.80192,0 -12.80185,0 0,18.63062 c 0,20.70054 0.59716,24.65005 4.25741,28.15681 2.25647,2.16184 2.95086,2.34733 8.80081,2.35117 3.49305,0.003 7.63723,-0.18135 9.20926,-0.40877 l 2.85821,-0.41312 1.01249,4.49989 c 0.55693,2.47496 0.85659,4.75221 0.66606,5.06046 -1.13856,1.84221 -16.00908,3.50053 -21.91438,2.44375 l -8e-5,0 z m -293.69003,-1.55698 c -7.61977,-2.6332 -12.49481,-7.54862 -15.68573,-15.81564 -1.22178,-3.16552 -1.48089,-7.48829 -1.74731,-29.14993 l -0.31251,-25.43313 6.46421,0.24219 6.46427,0.2422 0.41307,23.97711 c 0.40684,23.63003 0.44311,24.03577 2.49807,28.02574 3.04789,5.91803 7.14244,7.87978 16.42169,7.86785 3.90336,-0.008 8.49073,-0.23943 10.19417,-0.52101 l 3.09729,-0.51194 0,-29.66009 0,-29.66008 6.40091,0.24102 6.40093,0.2414 0.21572,33.62256 c 0.24932,38.85391 1.46595,34.48704 -10.1754,36.52328 -10.22104,1.78783 -25.13123,1.67503 -30.64915,-0.23232 l -1.5e-4,3e-5 z m 66.2126,0.23784 c -3.1799,-0.62456 -6.6178,-1.34002 -7.63985,-1.58996 l -1.85836,-0.45425 0,-50.26033 0,-50.26036 3.51023,-0.54066 c 1.93055,-0.29751 4.71808,-0.75788 6.19442,-1.02335 l 2.68432,-0.48277 0,18.57925 0,18.57934 5.162,-2.14232 c 4.18099,-1.73517 6.49804,-2.14169 12.19153,-2.13908 6.14952,0.003 7.72348,0.32793 12.57336,2.59756 17.54215,8.20899 25.36169,29.0248 18.3968,48.97249 -3.19586,9.153 -11.90986,17.42027 -21.30119,20.20921 -5.28836,1.57049 -21.81605,1.5458 -29.91326,-0.0434 l 0,8e-5 0,4e-5 z m 27.28756,-11.82364 c 1.83458,-0.83336 4.8617,-3.24889 6.72693,-5.36786 8.07694,-9.176 8.01618,-27.05264 -0.12446,-36.68463 -5.76548,-6.82159 -16.51149,-8.43901 -25.67117,-3.86402 l -4.91482,2.45485 -0.21969,22.03048 c -0.20427,20.47033 -0.11655,22.05737 1.239,22.41075 0.80226,0.20901 5.547,0.41501 10.54393,0.45809 7.17054,0.0617 9.78816,-0.2418 12.42084,-1.4375 l -2e-4,0 z m 55.16678,11.5856 c -5.50242,-1.90147 -9.77184,-5.19468 -12.68023,-9.78062 -4.07246,-6.42163 -4.52585,-10.04613 -4.52585,-36.18143 l 0,-23.9519 6.40096,-0.24101 6.40092,-0.24101 0,21.4682 c 0,22.62329 0.59452,28.01334 3.57217,32.38696 3.29265,4.83628 5.78609,6.05671 13.04743,6.38653 3.6283,0.16477 8.62076,0.0482 11.09425,-0.26273 l 4.49736,-0.56191 0,-29.70873 0,-29.70872 6.40093,0.24102 6.40093,0.2414 0.21572,34.01103 c 0.2015,31.86495 0.12367,34.03836 -1.23888,34.44475 -10.41125,3.10452 -32.4702,3.91712 -39.58555,1.45824 l 0,0 z m 195.74496,0 c -7.8238,-2.70368 -12.25186,-7.20053 -15.38759,-15.62651 -1.65014,-4.4341 -1.7627,-6.29034 -1.78968,-29.50962 l -0.0277,-24.77782 6.40092,-0.24101 6.40088,-0.24101 0,21.4682 c 0,22.62329 0.59455,28.01334 3.5722,32.38696 3.29261,4.83628 5.7861,6.05671 13.04743,6.38653 3.6283,0.16477 8.62068,0.0482 11.09426,-0.26273 l 4.49729,-0.56191 0,-29.70873 0,-29.70872 6.40096,0.24102 6.40096,0.2414 0.21533,34.01103 c 0.20189,31.86495 0.12367,34.03836 -1.23888,34.44475 -10.4112,3.10452 -32.47016,3.91712 -39.58551,1.45824 l 8.8e-4,0 z m -138.44708,0.18529 c -0.32083,-0.32081 -0.5834,-15.72898 -0.5834,-34.24028 l 0,-33.65702 4.33611,-0.93497 c 15.73351,-3.39242 30.4235,-3.27717 37.95462,0.29791 5.34638,2.5379 8.33758,5.68398 11.07667,11.65049 2.98262,6.49713 3.68732,13.94522 3.43829,36.34089 l -0.22915,20.64821 -6.19445,0 -6.19444,0 -0.43588,-23.53902 c -0.47405,-25.58765 -0.79412,-27.45885 -5.54888,-32.42286 -3.47654,-3.62961 -10.82342,-4.8089 -21.14514,-3.39409 l -3.82166,0.52379 -0.21652,29.41607 -0.2165,29.41611 -5.8176,0.23903 c -3.19965,0.13157 -6.08005,-0.0237 -6.40092,-0.34373 l -4e-5,1.5e-4 z"
         style="fill:#f37936;fill-opacity:1;stroke:#f37936;stroke-opacity:1"
         inkscape:connector-curvature="0" />
      <g
         inkscape:export-ydpi="99.602974"
         inkscape:export-xdpi="99.602974"
         inkscape:export-filename="/home/drazen/Namizje/test.png"
         transform="translate(104.43075,87.770945)"
         id="text3717"
         style="font-size:34.14699936px;font-style:normal;font-variant:normal;font-weight:normal;font-stretch:normal;fill:#67a600;fill-opacity:1;stroke:none;font-family:Liberation Sans;-inkscape-font-specification:Liberation Sans">
        <path
           inkscape:connector-curvature="0"
           id="path3738"
           d="m 510.9699,213.80318 c -2e-5,0.98929 -0.19454,1.90076 -0.58357,2.73443 -0.37794,0.83367 -0.96707,1.55618 -1.76737,2.16753 -0.80034,0.60024 -1.81185,1.07265 -3.03455,1.41723 -1.21161,0.33347 -2.65107,0.5002 -4.31839,0.50021 -2.9234,-1e-5 -5.20209,-0.51132 -6.83607,-1.53395 -1.63399,-1.02263 -2.6733,-2.501 -3.11792,-4.43511 l 3.08457,-0.61691 c 0.15562,0.61136 0.3946,1.16713 0.71696,1.66733 0.32234,0.5002 0.75585,0.93371 1.30052,1.30052 0.55577,0.3557 1.23937,0.63359 2.05082,0.83367 0.81142,0.20008 1.78403,0.30012 2.91783,0.30012 0.94481,0 1.81182,-0.0778 2.60104,-0.23343 0.78919,-0.16673 1.46724,-0.41683 2.03415,-0.7503 0.56688,-0.33346 1.00594,-0.76141 1.31719,-1.28385 0.32234,-0.53354 0.48351,-1.16712 0.48353,-1.90076 -2e-5,-0.76696 -0.17787,-1.38943 -0.53355,-1.86741 -0.3446,-0.47796 -0.83368,-0.87256 -1.46725,-1.18381 -0.6336,-0.31122 -1.38946,-0.57244 -2.26757,-0.78365 -0.87815,-0.21118 -1.85076,-0.43905 -2.91784,-0.6836 -0.65583,-0.14449 -1.3172,-0.30011 -1.98413,-0.46686 -0.65582,-0.17783 -1.28941,-0.38347 -1.90076,-0.61691 -0.60024,-0.24453 -1.16714,-0.52798 -1.70068,-0.85034 -0.53355,-0.32234 -0.99484,-0.70582 -1.38388,-1.15046 -0.38905,-0.45572 -0.69473,-0.97815 -0.91704,-1.56729 -0.22231,-0.60023 -0.33347,-1.28939 -0.33347,-2.0675 0,-1.11154 0.22231,-2.06191 0.66694,-2.85114 0.45573,-0.8003 1.08376,-1.45612 1.88409,-1.96745 0.80031,-0.5113 1.74513,-0.88367 2.83446,-1.11712 1.08932,-0.2334 2.26757,-0.35011 3.53475,-0.35014 1.45613,3e-5 2.70107,0.11674 3.73483,0.35014 1.03373,0.22234 1.9063,0.56136 2.61771,1.01708 0.71138,0.45576 1.27827,1.02265 1.70068,1.70068 0.43349,0.66695 0.77807,1.44504 1.03375,2.33426 l -3.13459,0.55022 c -0.15563,-0.56687 -0.3835,-1.07263 -0.6836,-1.51727 -0.28902,-0.4446 -0.67251,-0.81697 -1.15046,-1.11711 -0.47799,-0.3001 -1.06155,-0.52797 -1.7507,-0.68361 -0.67807,-0.1556 -1.47839,-0.2334 -2.40097,-0.23343 -1.08933,3e-5 -2.00636,0.10007 -2.7511,0.30012 -0.73363,0.18899 -1.32831,0.4502 -1.78404,0.78365 -0.44463,0.33349 -0.76698,0.72809 -0.96706,1.18381 -0.18897,0.44464 -0.28345,0.92817 -0.28344,1.45058 -10e-6,0.7003 0.17228,1.2783 0.51687,1.73403 0.35569,0.44463 0.83366,0.817 1.43391,1.11711 0.60023,0.30013 1.29495,0.55023 2.08416,0.7503 0.7892,0.20009 1.62842,0.40017 2.51768,0.60024 0.7225,0.16675 1.43945,0.33904 2.15086,0.51687 0.7225,0.16675 1.41166,0.37239 2.06749,0.61692 0.6558,0.23344 1.26716,0.51132 1.83407,0.83366 0.57799,0.32237 1.07819,0.71697 1.5006,1.18381 0.42237,0.46686 0.75028,1.01708 0.98373,1.65066 0.24452,0.6336 0.36679,1.37834 0.36681,2.23423" />
        <path
           inkscape:connector-curvature="0"
           id="path3740"
           d="m 514.87146,220.28911 0,-24.74324 3.0012,0 0,24.74324 -3.0012,0" />
        <path
           inkscape:connector-curvature="0"
           id="path3742"
           d="m 537.73061,211.25216 c -2e-5,3.15682 -0.69474,5.50776 -2.08417,7.05282 -1.38946,1.54506 -3.40693,2.31759 -6.05242,2.3176 -1.25607,-1e-5 -2.37874,-0.18897 -3.36801,-0.5669 -0.98929,-0.37793 -1.82852,-0.95594 -2.51768,-1.73403 -0.67805,-0.77808 -1.20048,-1.75069 -1.56729,-2.91783 -0.3557,-1.17824 -0.53355,-2.56213 -0.53355,-4.15166 0,-6.2247 2.69552,-9.33705 8.08657,-9.33707 1.40055,2e-5 2.60659,0.19454 3.61812,0.58356 1.02261,0.38907 1.85628,0.97263 2.501,1.75071 0.6558,0.7781 1.13932,1.75071 1.45058,2.91783 0.31122,1.16715 0.46683,2.5288 0.46685,4.08497 m -3.15126,0 c -2e-5,-1.40055 -0.11117,-2.55657 -0.33347,-3.46806 -0.21121,-0.91146 -0.528,-1.63953 -0.95038,-2.1842 -0.41129,-0.54465 -0.91704,-0.92258 -1.51727,-1.13379 -0.60025,-0.2223 -1.2783,-0.33345 -2.03415,-0.33347 -0.76698,2e-5 -1.4617,0.11673 -2.08417,0.35014 -0.61136,0.22233 -1.13379,0.61137 -1.56729,1.16714 -0.43351,0.54467 -0.76698,1.27274 -1.0004,2.1842 -0.22232,0.91149 -0.33347,2.05083 -0.33347,3.41804 0,1.40057 0.12227,2.56214 0.36682,3.48473 0.24453,0.91148 0.578,1.63955 1.0004,2.1842 0.4335,0.54467 0.93925,0.92816 1.51727,1.15046 0.58912,0.22232 1.22826,0.33347 1.91743,0.33347 0.76697,0 1.46169,-0.10559 2.08417,-0.31679 0.62246,-0.22231 1.15045,-0.6058 1.58397,-1.15046 0.43349,-0.54466 0.76696,-1.27829 1.0004,-2.20088 0.23341,-0.92259 0.35012,-2.08416 0.35014,-3.48473" />
        <path
           inkscape:connector-curvature="0"
           id="path3744"
           d="m 549.40195,220.28911 -3.55142,0 -6.55263,-18.04056 3.20129,0 3.96825,11.73804 c 0.0778,0.24454 0.16673,0.54466 0.26677,0.90036 0.11115,0.34458 0.22231,0.70584 0.33347,1.08376 0.11115,0.37794 0.21119,0.74475 0.30012,1.10044 0.10003,0.34459 0.1834,0.63359 0.2501,0.86702 0.0667,-0.23343 0.15005,-0.52243 0.2501,-0.86702 0.11115,-0.35569 0.2223,-0.71695 0.33347,-1.08376 0.11114,-0.36681 0.2223,-0.72251 0.33346,-1.0671 0.12227,-0.35569 0.22786,-0.65581 0.3168,-0.90036 l 4.10164,-11.77138 3.18461,0 -6.73603,18.04056" />
        <path
           inkscape:connector-curvature="0"
           id="path3746"
           d="m 560.85653,211.90242 c 0,0.94483 0.0945,1.8174 0.28345,2.61771 0.20008,0.78921 0.5002,1.47282 0.90036,2.05082 0.41127,0.5669 0.9337,1.01152 1.56729,1.33387 0.63358,0.31124 1.395,0.46686 2.28425,0.46685 1.30051,1e-5 2.33982,-0.26121 3.11792,-0.78364 0.78919,-0.52243 1.32273,-1.18381 1.60064,-1.98413 l 2.63439,0.7503 c -0.18899,0.5002 -0.45576,1.00596 -0.80033,1.51727 -0.33348,0.50021 -0.78366,0.95594 -1.35054,1.36722 -0.5669,0.40016 -1.2783,0.73363 -2.13418,1.0004 -0.8448,0.25566 -1.86743,0.38348 -3.0679,0.38349 -2.66774,-1e-5 -4.70188,-0.79477 -6.10244,-2.38429 -1.38945,-1.58952 -2.08417,-3.95158 -2.08417,-7.08617 0,-1.68956 0.2112,-3.1179 0.63359,-4.28505 0.42239,-1.17823 1.0004,-2.13417 1.73403,-2.86781 0.73362,-0.73361 1.58952,-1.2616 2.56769,-1.58397 0.97816,-0.33345 2.02302,-0.50018 3.13459,-0.5002 1.5117,2e-5 2.77332,0.24456 3.78485,0.73363 1.02261,0.4891 1.83961,1.16715 2.45098,2.03414 0.62245,0.85592 1.06152,1.86743 1.31719,3.03455 0.26676,1.16715 0.40014,2.42876 0.40016,3.78485 l 0,0.40016 -12.87182,0 m 9.77058,-2.30092 c -0.16675,-1.90075 -0.65027,-3.28464 -1.45058,-4.15166 -0.80033,-0.87812 -1.95079,-1.31718 -3.45138,-1.3172 -0.50021,2e-5 -1.0282,0.0834 -1.58397,0.2501 -0.54467,0.15564 -1.05043,0.43908 -1.51727,0.85034 -0.46686,0.41129 -0.86146,0.97263 -1.18381,1.68401 -0.32236,0.70029 -0.50576,1.59509 -0.55022,2.68441 l 9.73723,0" />
        <path
           inkscape:connector-curvature="0"
           id="path3748"
           d="m 589.0178,220.28911 0,-11.43791 c -10e-6,-0.87812 -0.0667,-1.61175 -0.20008,-2.20088 -0.12228,-0.58911 -0.32792,-1.06152 -0.61691,-1.41724 -0.28902,-0.3668 -0.6725,-0.62245 -1.15046,-0.76697 -0.46687,-0.1556 -1.05043,-0.23341 -1.7507,-0.23343 -0.71141,2e-5 -1.35611,0.12785 -1.93411,0.38349 -0.5669,0.24456 -1.05598,0.60581 -1.46725,1.08377 -0.40017,0.46686 -0.7114,1.05043 -0.93371,1.7507 -0.22232,0.68917 -0.33347,1.48394 -0.33347,2.38428 l 0,10.45419 -3.0012,0 0,-14.18901 c 0,-0.37792 -0.006,-0.77252 -0.0167,-1.18381 0,-0.42238 -0.006,-0.81698 -0.0167,-1.18381 -0.0111,-0.37791 -0.0222,-0.70026 -0.0334,-0.96705 -0.0111,-0.26676 -0.0222,-0.43905 -0.0334,-0.51688 l 2.83447,0 c 0.0111,0.0556 0.0222,0.20566 0.0334,0.45019 0.0111,0.24455 0.0222,0.528 0.0333,0.85034 0.0222,0.31125 0.0389,0.6336 0.05,0.96705 0.0111,0.32237 0.0167,0.5947 0.0167,0.81699 l 0.05,0 c 0.289,-0.52241 0.60579,-0.99482 0.95038,-1.41723 0.34457,-0.42238 0.74473,-0.77807 1.20048,-1.06709 0.45573,-0.30011 0.97816,-0.52798 1.56729,-0.68361 0.58912,-0.16672 1.27272,-0.25008 2.05082,-0.2501 1.00039,2e-5 1.86185,0.12229 2.58437,0.36681 0.7225,0.24456 1.31718,0.62249 1.78405,1.13379 0.46684,0.51133 0.80586,1.17271 1.01707,1.98413 0.2223,0.80033 0.33345,1.75627 0.33347,2.86781 l 0,12.02148 -3.01788,0" />
        <path
           inkscape:connector-curvature="0"
           id="path3750"
           d="m 596.55415,198.41369 0,-2.86782 3.0012,0 0,2.86782 -3.0012,0 m 0,21.87542 0,-18.04056 3.0012,0 0,18.04056 -3.0012,0" />
        <path
           inkscape:connector-curvature="0"
           id="path3752"
           d="m 604.1572,198.41369 0,-2.86782 3.0012,0 0,2.86782 -3.0012,0 m 3.0012,24.10965 c -10e-6,0.68916 -0.0611,1.3283 -0.18341,1.91743 -0.11116,0.58912 -0.3168,1.10043 -0.61691,1.53395 -0.30013,0.4335 -0.7114,0.77252 -1.23383,1.01707 -0.51132,0.25565 -1.16714,0.38348 -1.96746,0.38349 -0.37793,-1e-5 -0.7503,-0.0111 -1.11711,-0.0334 -0.3557,-0.0222 -0.68916,-0.0611 -1.0004,-0.11671 l 0,-2.3176 c 0.1445,0.0222 0.31679,0.0445 0.51687,0.0667 0.20008,0.0222 0.37238,0.0333 0.51688,0.0333 0.42239,0 0.76697,-0.0556 1.03374,-0.16673 0.27789,-0.11116 0.49465,-0.28901 0.65027,-0.53355 0.15561,-0.23343 0.26121,-0.53911 0.31679,-0.91703 0.0556,-0.36682 0.0834,-0.80588 0.0834,-1.31719 l 0,-19.82461 3.0012,0 0,20.27479" />
        <path
           inkscape:connector-curvature="0"
           id="path3754"
           d="m 616.37875,220.62258 c -1.81184,-1e-5 -3.17349,-0.47797 -4.08497,-1.43391 -0.91147,-0.95594 -1.36721,-2.26757 -1.36721,-3.93491 0,-1.18936 0.22231,-2.16197 0.66693,-2.91783 0.45574,-0.76697 1.04486,-1.36721 1.76738,-1.80073 0.73362,-0.43349 1.56729,-0.73361 2.501,-0.90036 0.9337,-0.16672 1.88408,-0.2612 2.85114,-0.28344 l 4.05162,-0.0667 0,-0.98372 c -10e-6,-0.74473 -0.0778,-1.37832 -0.23342,-1.90076 -0.15564,-0.52242 -0.39462,-0.94481 -0.71696,-1.26718 -0.32236,-0.32233 -0.72808,-0.55576 -1.21715,-0.70028 -0.47798,-0.1556 -1.04487,-0.23341 -1.70068,-0.23342 -0.57802,1e-5 -1.10045,0.0445 -1.5673,0.13338 -0.46686,0.0778 -0.87258,0.22789 -1.21715,0.45018 -0.34459,0.21121 -0.62248,0.50578 -0.83367,0.88369 -0.2112,0.36683 -0.35014,0.83368 -0.41683,1.40056 l -3.13459,-0.28345 c 0.11115,-0.71138 0.32235,-1.36164 0.63359,-1.95078 0.31123,-0.60022 0.75029,-1.11709 1.31719,-1.55062 0.57801,-0.43349 1.29496,-0.76695 2.15086,-1.0004 0.86701,-0.24452 1.91187,-0.36679 3.13459,-0.36681 2.26756,2e-5 3.9738,0.52245 5.11872,1.56729 1.14488,1.03376 1.71733,2.53436 1.71735,4.5018 l 0,7.76978 c -2e-5,0.88925 0.1167,1.56174 0.35014,2.01747 0.23341,0.44463 0.67803,0.66694 1.33387,0.66694 0.16671,0 0.33345,-0.0111 0.5002,-0.0333 0.16671,-0.0222 0.32789,-0.05 0.48352,-0.0834 l 0,1.86742 c -0.37794,0.0889 -0.75587,0.15562 -1.13378,0.20008 -0.36683,0.0445 -0.76144,0.0667 -1.18381,0.0667 -0.56691,0 -1.05599,-0.0722 -1.46725,-0.21675 -0.40018,-0.15562 -0.72809,-0.38349 -0.98373,-0.68361 -0.25567,-0.31123 -0.4502,-0.68916 -0.58357,-1.13379 -0.1334,-0.45573 -0.21676,-0.98372 -0.2501,-1.58396 l -0.10004,0 c -0.32236,0.57801 -0.67806,1.10044 -1.06709,1.56729 -0.37794,0.46686 -0.82256,0.86702 -1.33387,1.20048 -0.51133,0.32235 -1.09489,0.57245 -1.7507,0.7503 -0.64471,0.17785 -1.38945,0.26677 -2.23423,0.26678 m 0.68361,-2.25091 c 0.95593,1e-5 1.7896,-0.17228 2.501,-0.51687 0.7225,-0.35569 1.31718,-0.80587 1.78405,-1.35054 0.47795,-0.54466 0.83365,-1.13934 1.06709,-1.78405 0.23342,-0.64469 0.35013,-1.26161 0.35014,-1.85074 l 0,-1.48393 -3.28465,0.0667 c -0.73363,0.0111 -1.43391,0.0667 -2.10084,0.16673 -0.65582,0.0889 -1.23383,0.27234 -1.73402,0.55022 -0.50021,0.2779 -0.90037,0.66694 -1.20048,1.16714 -0.28901,0.5002 -0.43352,1.15602 -0.43351,1.96745 -10e-6,0.97817 0.26121,1.73403 0.78365,2.26757 0.53354,0.53355 1.28939,0.80033 2.26757,0.80032" />
      </g>
    </g>
  </g>
</svg>
